<?xml version="1.0" standalone="no"?>
<!DOCTYPE svg PUBLIC "-//W3C//DTD SVG 20010904//EN"
 "http://www.w3.org/TR/2001/REC-SVG-20010904/DTD/svg10.dtd">
<svg version="1.0" xmlns="http://www.w3.org/2000/svg"
 width="128.000000pt" height="128.000000pt" viewBox="0 0 128.000000 128.000000"
 preserveAspectRatio="xMidYMid meet">

<g transform="translate(0.000000,128.000000) scale(0.100000,-0.100000)"
fill="#000000" stroke="none">
<path d="M91 1226 c-51 -28 -50 -24 -51 -583 0 -510 1 -524 20 -543 11 -11 33
-20 50 -20 23 0 30 -4 30 -20 0 -13 7 -20 20 -20 18 0 20 8 22 98 2 78 6 97
18 97 10 0 17 -14 20 -45 3 -31 10 -45 20 -45 11 0 16 15 20 55 4 40 9 55 20
55 11 0 16 -15 20 -55 4 -40 9 -55 20 -55 11 0 16 16 20 65 4 49 9 65 20 65
11 0 16 -16 20 -65 4 -49 9 -65 20 -65 11 0 16 16 20 65 4 49 9 65 20 65 12 0
16 -19 20 -95 6 -110 20 -122 58 -53 24 43 52 57 52 26 0 -9 -11 -36 -25 -59
-24 -41 -25 -44 -7 -53 16 -8 22 -5 32 14 12 22 20 25 70 25 50 0 58 -3 70
-25 10 -19 16 -22 32 -14 18 9 17 12 -7 53 -14 23 -25 50 -25 59 0 31 28 17
52 -25 38 -70 52 -58 58 52 4 76 8 95 20 95 11 0 16 -16 20 -65 4 -49 9 -65
20 -65 11 0 16 16 20 65 4 49 9 65 20 65 11 0 16 -16 20 -65 4 -49 9 -65 20
-65 11 0 16 15 20 55 4 40 9 55 20 55 11 0 16 -15 20 -55 4 -40 9 -55 20 -55
10 0 17 14 20 45 3 31 10 45 20 45 12 0 16 -19 18 -97 2 -90 4 -98 22 -98 13
0 20 7 20 20 0 16 7 20 30 20 17 0 39 9 50 20 19 19 20 33 20 540 0 565 0 563
-55 588 -40 18 -1061 16 -1094 -2z m1089 -46 c13 -13 20 -33 20 -60 l0 -40
-560 0 -560 0 0 40 c0 27 7 47 20 60 19 19 33 20 540 20 507 0 521 -1 540 -20z
m20 -380 l0 -240 -560 0 -560 0 0 240 0 240 560 0 560 0 0 -240z m-5 -480 l0
-195 -27 -3 c-28 -3 -28 -3 -28 57 0 68 -23 104 -63 100 -12 -2 -32 3 -45 10
-12 6 -30 11 -40 10 -9 -2 -26 2 -37 8 -11 6 -49 10 -84 9 -76 -2 -91 -16 -91
-89 0 -48 -1 -49 -18 -34 -38 34 -92 8 -92 -45 0 -24 -4 -28 -30 -28 -26 0
-30 4 -30 27 0 54 -54 81 -92 46 -17 -15 -18 -14 -18 34 0 73 -15 87 -91 89
-35 1 -73 -3 -84 -9 -11 -6 -28 -10 -37 -8 -10 1 -28 -4 -40 -10 -13 -7 -33
-12 -45 -10 -40 4 -63 -32 -63 -100 0 -60 0 -60 -27 -57 l-28 3 -3 185 c-1
101 0 190 2 197 4 11 114 13 558 11 l553 -3 0 -195z"/>
<path d="M160 1140 c0 -13 7 -20 20 -20 13 0 20 7 20 20 0 13 -7 20 -20 20
-13 0 -20 -7 -20 -20z"/>
<path d="M240 1140 c0 -13 7 -20 20 -20 13 0 20 7 20 20 0 13 -7 20 -20 20
-13 0 -20 -7 -20 -20z"/>
<path d="M320 1140 c0 -13 7 -20 20 -20 13 0 20 7 20 20 0 13 -7 20 -20 20
-13 0 -20 -7 -20 -20z"/>
<path d="M455 906 c-107 -45 -170 -77 -170 -86 0 -7 29 -31 65 -51 l65 -38 5
-53 5 -53 215 0 215 0 3 52 c3 49 5 53 47 77 24 14 46 26 49 26 17 0 3 -59
-19 -80 -19 -18 -22 -26 -14 -37 9 -10 15 -10 25 -2 11 9 14 6 14 -15 0 -19 5
-26 20 -26 15 0 20 7 20 26 0 21 3 24 13 15 10 -8 17 -7 25 1 9 9 6 18 -12 37
-19 20 -26 39 -28 81 l-3 55 -170 72 c-93 39 -177 71 -185 71 -8 0 -91 -32
-185 -72z m311 -19 c71 -29 138 -57 149 -61 18 -6 17 -9 -13 -28 -24 -15 -36
-17 -46 -9 -7 6 -59 20 -114 32 l-102 20 -102 -20 c-55 -12 -107 -26 -114 -32
-10 -8 -22 -6 -46 10 l-33 20 30 11 c24 9 257 106 261 109 1 1 59 -23 130 -52z
m-36 -105 l85 -18 3 -52 3 -52 -181 0 -181 0 3 52 3 53 80 16 c101 21 85 21
185 1z"/>
<path d="M180 460 c0 -13 7 -20 20 -20 13 0 20 7 20 20 0 13 -7 20 -20 20 -13
0 -20 -7 -20 -20z"/>
<path d="M260 460 c0 -13 7 -20 20 -20 13 0 20 7 20 20 0 13 -7 20 -20 20 -13
0 -20 -7 -20 -20z"/>
<path d="M340 460 c0 -13 7 -20 20 -20 13 0 20 7 20 20 0 13 -7 20 -20 20 -13
0 -20 -7 -20 -20z"/>
<path d="M420 460 c0 -13 7 -20 20 -20 13 0 20 7 20 20 0 13 -7 20 -20 20 -13
0 -20 -7 -20 -20z"/>
<path d="M500 460 c0 -13 7 -20 20 -20 13 0 20 7 20 20 0 13 -7 20 -20 20 -13
0 -20 -7 -20 -20z"/>
<path d="M580 460 c0 -13 7 -20 20 -20 13 0 20 7 20 20 0 13 -7 20 -20 20 -13
0 -20 -7 -20 -20z"/>
<path d="M660 460 c0 -13 7 -20 20 -20 13 0 20 7 20 20 0 13 -7 20 -20 20 -13
0 -20 -7 -20 -20z"/>
<path d="M740 460 c0 -13 7 -20 20 -20 13 0 20 7 20 20 0 13 -7 20 -20 20 -13
0 -20 -7 -20 -20z"/>
<path d="M820 460 c0 -13 7 -20 20 -20 13 0 20 7 20 20 0 13 -7 20 -20 20 -13
0 -20 -7 -20 -20z"/>
<path d="M900 460 c0 -13 7 -20 20 -20 13 0 20 7 20 20 0 13 -7 20 -20 20 -13
0 -20 -7 -20 -20z"/>
<path d="M980 460 c0 -13 7 -20 20 -20 13 0 20 7 20 20 0 13 -7 20 -20 20 -13
0 -20 -7 -20 -20z"/>
<path d="M1060 460 c0 -13 7 -20 20 -20 13 0 20 7 20 20 0 13 -7 20 -20 20
-13 0 -20 -7 -20 -20z"/>
<path d="M180 380 c0 -13 7 -20 20 -20 13 0 20 7 20 20 0 13 -7 20 -20 20 -13
0 -20 -7 -20 -20z"/>
<path d="M260 380 c0 -13 7 -20 20 -20 13 0 20 7 20 20 0 13 -7 20 -20 20 -13
0 -20 -7 -20 -20z"/>
<path d="M340 380 c0 -13 7 -20 20 -20 13 0 20 7 20 20 0 13 -7 20 -20 20 -13
0 -20 -7 -20 -20z"/>
<path d="M420 380 c0 -13 7 -20 20 -20 13 0 20 7 20 20 0 13 -7 20 -20 20 -13
0 -20 -7 -20 -20z"/>
<path d="M500 380 c0 -13 7 -20 20 -20 13 0 20 7 20 20 0 13 -7 20 -20 20 -13
0 -20 -7 -20 -20z"/>
<path d="M580 380 c0 -13 7 -20 20 -20 13 0 20 7 20 20 0 13 -7 20 -20 20 -13
0 -20 -7 -20 -20z"/>
<path d="M660 380 c0 -13 7 -20 20 -20 13 0 20 7 20 20 0 13 -7 20 -20 20 -13
0 -20 -7 -20 -20z"/>
<path d="M740 380 c0 -13 7 -20 20 -20 13 0 20 7 20 20 0 13 -7 20 -20 20 -13
0 -20 -7 -20 -20z"/>
<path d="M820 380 c0 -13 7 -20 20 -20 13 0 20 7 20 20 0 13 -7 20 -20 20 -13
0 -20 -7 -20 -20z"/>
<path d="M900 380 c0 -13 7 -20 20 -20 13 0 20 7 20 20 0 13 -7 20 -20 20 -13
0 -20 -7 -20 -20z"/>
<path d="M980 380 c0 -13 7 -20 20 -20 13 0 20 7 20 20 0 13 -7 20 -20 20 -13
0 -20 -7 -20 -20z"/>
<path d="M1060 380 c0 -13 7 -20 20 -20 13 0 20 7 20 20 0 13 -7 20 -20 20
-13 0 -20 -7 -20 -20z"/>
<path d="M500 300 c0 -13 7 -20 20 -20 13 0 20 7 20 20 0 13 -7 20 -20 20 -13
0 -20 -7 -20 -20z"/>
<path d="M580 300 c0 -13 7 -20 20 -20 13 0 20 7 20 20 0 13 -7 20 -20 20 -13
0 -20 -7 -20 -20z"/>
<path d="M660 300 c0 -13 7 -20 20 -20 13 0 20 7 20 20 0 13 -7 20 -20 20 -13
0 -20 -7 -20 -20z"/>
<path d="M740 300 c0 -13 7 -20 20 -20 13 0 20 7 20 20 0 13 -7 20 -20 20 -13
0 -20 -7 -20 -20z"/>
</g>
</svg>
